<svg xmlns="http://www.w3.org/2000/svg" viewBox="0 0 269.72 512" id="dong"><path fill='white' d="M248.38 64H237.72V21.33a21.34 21.34 0 00-42.67 0V64H120.38a21.34 21.34 0 000 42.67h74.67v69.8a117.27 117.27 0 00-75.13-27.14h-2.13A117.92 117.92 0 000 267.12v41.76A117.92 117.92 0 00117.79 426.67h2.13a117.27 117.27 0 0075.13-27.14v5.8a21.34 21.34 0 1042.67 0V106.67h10.66a21.34 21.34 0 100-42.67zM119.92 384h-2.13a75.21 75.21 0 01-75.12-75.12V267.12A75.21 75.21 0 01117.79 192h2.13a75.21 75.21 0 0175.13 75.12v41.76A75.21 75.21 0 01119.92 384zM216.38 469.33h-160a21.34 21.34 0 000 42.67h160a21.34 21.34 0 100-42.67z" data-name="Layer 2"></path></svg>